<svg width="1920" height="207" fill="none" xmlns="http://www.w3.org/2000/svg"><path d="M2007.34 201.528l-7.42-.358-25.35-4.166-25.71-.186-25.11-4.809-24.92-5.743-25.9.339-25.32-3.37-23.97-9.991-26.39 1.979-25.4-2.876-24.4-7.709-24.08-4.827-24.99-3.47-18.76-16.837-21.63-10.129-24.92-5.114-20.24-12.736-20.81-11.856-22.7-8.906-19.64-14.072-29.39-3.997-28.69-3.845-27.83-7.995-23.58-9.638-17.93-16.478-21-12.534-20.86-13.04-24.28-6.487L1330.87 2l-24.27 7.298-24.09 4.625-24.89 1.457-24.75 2.793-22.68 10.452-24.2 5.366-24.16 6.301-25.44 5.247-24.28 8.029-23.91 9.027-24.88 7.809-27.06-.05-19.43-16.278-23.417 9.063-22.604 10.38-23.63 8.555-25.11 4.055-24.729 1.948-25.587 3.149-25.015-7.871-26.351-.954-25.778-3.404-25.707-4.944-24.513 3.082-24.394-.406-24.18 3.34-24.226 2.456-24.92-1-24.012 4.353-24.728-.252-23.415 8.874-24.895-4.555-24.156.777-24.413 2.49-24.277-.016-22.379-10.569-24.652 3.557-23.358 2.828-25.573 4.532-19.274 16.192-24.151 8.875-19.081 15.615-20.119 14.699-22.914 11.232-25.232 6.368-25.778 2.146-27.211 4.351-27.449-4.014-27.413 3.203-27.397-.763-27.915-.306-23.7 10.282-25.608 2.235-25.704 2.49-22.487 12.956-25.301 3.945-12.65 2.798" stroke="#1E1E1E" stroke-width="2"/></svg>